<svg xmlns="http://www.w3.org/2000/svg" version="1.1" xmlns:xlink="http://www.w3.org/1999/xlink" width="1000" height="1000"><metadata><rdf:RDF xmlns:rdf="http://www.w3.org/1999/02/22-rdf-syntax-ns#" xmlns:dc="http://purl.org/dc/elements/1.1/"><rdf:Description><dc:creator>RealFaviconGenerator</dc:creator><dc:source>https://realfavicongenerator.net</dc:source></rdf:Description></rdf:RDF></metadata><style>
    #light-icon {
      display: inline;
    }
    #dark-icon {
      display: none;
    }

    @media (prefers-color-scheme: dark) {
      #light-icon {
        display: none;
      }
      #dark-icon {
        display: inline;
      }
    }
  </style><g id="light-icon"><svg xmlns="http://www.w3.org/2000/svg" version="1.1" xmlns:xlink="http://www.w3.org/1999/xlink" width="1000" height="1000"><g><g transform="matrix(1.3888888888888888,0,0,1.3888888888888888,0,0)"><svg xmlns="http://www.w3.org/2000/svg" width="720" height="720" viewBox="0 0 720 720" fill="none"><path d="M446.576 630.462L368 676.087V584.759L446.576 539.133V630.462ZM352 584.758V676.086L273.424 630.461V539.132L352 584.758ZM541.153 575.546L462.576 621.172V529.843L541.153 484.217V575.546ZM257.424 529.842V621.171L178.848 575.546V484.217L257.424 529.842ZM438.645 525.237L360 570.901L281.355 525.237L360 479.572L438.645 525.237ZM162.848 474.927V566.256L84.2715 520.632V429.302L162.848 474.927ZM635.729 520.631L557.153 566.256V474.927L635.729 429.302V520.631ZM344.067 470.321L265.424 515.986L186.78 470.321L265.424 424.657L344.067 470.321ZM533.22 470.321L454.576 515.986L375.933 470.321L454.576 424.657L533.22 470.321ZM249.491 415.406L170.848 461.07L92.2031 415.406L170.848 369.742L249.491 415.406ZM627.796 415.406L549.152 461.07L470.509 415.406L549.152 369.742L627.796 415.406ZM446.576 410.801L368 456.426V365.098L446.576 319.472V410.801ZM352 365.097V456.425L273.424 410.8V319.471L352 365.097ZM541.153 355.885L462.576 401.511V310.182L541.153 264.556V355.885ZM257.424 310.181V401.51L178.848 355.885V264.556L257.424 310.181ZM438.645 305.576L360 351.24L281.355 305.576L360 259.911L438.645 305.576ZM344.068 250.661L265.424 296.325L186.779 250.661L265.424 204.996L344.068 250.661ZM533.221 250.661L454.576 296.325L375.932 250.661L454.576 204.996L533.221 250.661ZM446.576 191.14L368 236.766V145.437L446.576 99.8115V191.14ZM352 145.436V236.765L273.424 191.139V99.8105L352 145.436ZM438.644 85.915L360 131.579L281.356 85.915L360 40.25L438.644 85.915Z" fill="#1A1816"></path></svg></g></g></svg></g><g id="dark-icon"><svg xmlns="http://www.w3.org/2000/svg" version="1.1" xmlns:xlink="http://www.w3.org/1999/xlink" width="1000" height="1000"><g><g transform="matrix(1.3888888888888888,0,0,1.3888888888888888,0,0)"><svg xmlns="http://www.w3.org/2000/svg" width="720" height="720" viewBox="0 0 720 720" fill="none"><path d="M446.576 630.462L368 676.087V584.759L446.576 539.133V630.462ZM352 584.758V676.086L273.424 630.461V539.132L352 584.758ZM541.153 575.546L462.576 621.172V529.843L541.153 484.217V575.546ZM257.424 529.842V621.171L178.848 575.546V484.217L257.424 529.842ZM438.645 525.237L360 570.901L281.355 525.237L360 479.572L438.645 525.237ZM162.848 474.927V566.256L84.2715 520.632V429.302L162.848 474.927ZM635.729 520.631L557.153 566.256V474.927L635.729 429.302V520.631ZM344.067 470.321L265.424 515.986L186.78 470.321L265.424 424.657L344.067 470.321ZM533.22 470.321L454.576 515.986L375.933 470.321L454.576 424.657L533.22 470.321ZM249.491 415.406L170.848 461.07L92.2031 415.406L170.848 369.742L249.491 415.406ZM627.796 415.406L549.152 461.07L470.509 415.406L549.152 369.742L627.796 415.406ZM446.576 410.801L368 456.426V365.098L446.576 319.472V410.801ZM352 365.097V456.425L273.424 410.8V319.471L352 365.097ZM541.153 355.885L462.576 401.511V310.182L541.153 264.556V355.885ZM257.424 310.181V401.51L178.848 355.885V264.556L257.424 310.181ZM438.645 305.576L360 351.24L281.355 305.576L360 259.911L438.645 305.576ZM344.068 250.661L265.424 296.325L186.779 250.661L265.424 204.996L344.068 250.661ZM533.221 250.661L454.576 296.325L375.932 250.661L454.576 204.996L533.221 250.661ZM446.576 191.14L368 236.766V145.437L446.576 99.8115V191.14ZM352 145.436V236.765L273.424 191.139V99.8105L352 145.436ZM438.644 85.915L360 131.579L281.356 85.915L360 40.25L438.644 85.915Z" fill="#FAF9F6"></path></svg></g></g></svg></g></svg>